<?xml version="1.0" standalone="no"?>
<!DOCTYPE svg PUBLIC "-//W3C//DTD SVG 20010904//EN"
 "http://www.w3.org/TR/2001/REC-SVG-20010904/DTD/svg10.dtd">
<svg version="1.0" xmlns="http://www.w3.org/2000/svg"
 width="307.000000pt" height="307.000000pt" viewBox="0 0 307.000000 307.000000"
 preserveAspectRatio="xMidYMid meet">

<g transform="translate(0.000000,307.000000) scale(0.100000,-0.100000)"
fill="#000000" stroke="none">
<path d="M1490 2750 l0 -90 45 0 c33 0 45 4 45 15 0 10 -10 15 -30 15 l-30 0
0 75 c0 60 -3 75 -15 75 -12 0 -15 -17 -15 -90z"/>
<path d="M1645 2788 c-3 -13 -6 -48 -7 -78 l-3 -55 43 -3 c33 -2 42 0 42 12 0
10 -9 16 -25 16 -31 0 -34 27 -3 32 31 4 33 25 3 32 -35 9 -26 30 14 34 46 5
34 26 -17 30 -36 3 -42 0 -47 -20z"/>
<path d="M1178 2767 c-21 -5 -38 -14 -38 -20 0 -17 32 -131 39 -139 11 -12 81
14 81 30 0 11 -8 13 -30 9 -23 -5 -30 -3 -30 9 0 8 7 17 15 20 8 4 15 13 15
21 0 11 -7 13 -25 9 -20 -5 -25 -3 -25 14 0 13 7 20 19 20 11 0 23 5 27 11 11
19 -10 26 -48 16z"/>
<path d="M1828 2758 c-53 -81 -71 -152 -28 -113 20 19 46 11 53 -16 3 -10 10
-19 16 -19 8 0 11 26 9 82 -2 67 -6 83 -19 86 -9 2 -23 -7 -31 -20z m18 -75
c-11 -11 -19 6 -11 24 8 17 8 17 12 0 3 -10 2 -21 -1 -24z"/>
<path d="M1952 2683 c-12 -32 -23 -64 -24 -72 -5 -22 20 -24 27 -2 10 31 25
25 25 -9 0 -20 5 -30 15 -30 9 0 15 9 15 22 0 12 7 29 15 38 9 10 18 33 21 52
5 30 3 35 -20 46 -44 20 -53 15 -74 -45z m68 9 c0 -5 -6 -16 -13 -27 -16 -20
-31 -7 -21 19 6 16 34 23 34 8z"/>
<path d="M1028 2714 c-25 -11 -35 -20 -31 -30 3 -8 12 -13 20 -12 9 2 23 -17
37 -50 13 -29 26 -53 30 -53 22 -1 22 12 1 63 -13 32 -19 60 -14 63 11 7 12
35 2 34 -5 0 -25 -7 -45 -15z"/>
<path d="M2086 2612 c-29 -57 -32 -71 -21 -76 10 -3 20 5 30 24 20 39 27 38
25 -2 -3 -48 -1 -58 10 -58 12 0 81 135 73 144 -12 11 -20 6 -33 -21 l-14 -28
-5 39 c-4 22 -11 41 -18 43 -7 3 -27 -26 -47 -65z"/>
<path d="M1320 2661 c0 -20 13 -41 21 -35 15 9 10 44 -6 44 -8 0 -15 -4 -15
-9z"/>
<path d="M882 2641 c-12 -7 -10 -21 7 -81 11 -40 22 -75 25 -77 9 -10 27 9 22
23 -7 19 27 37 42 22 9 -9 15 -9 24 0 10 10 0 24 -42 67 -58 59 -58 59 -78 46z
m47 -65 c7 -8 8 -17 3 -20 -6 -3 -12 3 -15 14 -6 24 -4 25 12 6z"/>
<path d="M732 2540 l-24 -19 47 -61 c25 -33 50 -60 55 -60 14 0 21 18 10 25
-5 3 -10 13 -10 22 0 14 3 14 24 -1 39 -25 39 -3 0 58 -40 62 -62 69 -102 36z
m58 -25 c19 -23 1 -39 -21 -19 -10 9 -16 21 -13 25 8 13 20 11 34 -6z"/>
<path d="M2184 2475 c-11 -27 1 -39 19 -21 17 17 15 36 -4 36 -5 0 -12 -7 -15
-15z"/>
<path d="M2409 2462 c-27 -24 -30 -31 -20 -49 15 -30 14 -53 -4 -53 -9 0 -14
8 -12 21 3 32 -21 35 -34 5 -10 -22 -9 -29 6 -46 24 -27 47 -25 75 5 20 22 22
28 11 51 -9 20 -9 30 0 40 15 18 28 9 22 -16 -7 -25 22 -28 36 -3 11 21 -1 48
-29 63 -16 8 -25 5 -51 -18z"/>
<path d="M619 2439 c-11 -11 -19 -24 -17 -29 7 -19 90 -100 103 -100 7 0 23
12 34 26 23 30 23 31 -33 92 -35 37 -58 40 -87 11z m101 -81 c0 -17 -28 -7
-54 21 -41 43 -23 61 20 20 19 -18 34 -37 34 -41z"/>
<path d="M2478 2319 c-27 -23 -48 -49 -48 -58 0 -21 30 -51 51 -51 23 1 113
85 105 99 -6 8 -20 2 -51 -24 -24 -19 -48 -35 -54 -35 -22 0 -10 20 34 55 42
35 50 55 22 55 -7 -1 -33 -19 -59 -41z"/>
<path d="M510 2319 c-12 -16 -21 -31 -19 -33 2 -1 28 -21 57 -45 56 -46 71
-47 98 -6 16 24 16 27 -1 45 -10 11 -22 20 -26 20 -4 0 -19 11 -33 25 -33 33
-50 32 -76 -6z m60 -18 c0 -14 -18 -23 -30 -16 -6 4 -8 11 -5 16 8 12 35 12
35 0z m50 -46 c0 -8 -6 -15 -14 -15 -17 0 -28 14 -19 24 12 12 33 6 33 -9z"/>
<path d="M1373 2215 c-72 -20 -127 -49 -176 -94 -33 -30 -52 -39 -92 -44 -65
-7 -105 -48 -105 -108 0 -22 5 -49 10 -59 9 -17 6 -22 -23 -33 -62 -26 -93
-108 -63 -168 9 -17 16 -33 16 -34 0 -2 -13 -5 -29 -8 -41 -8 -97 -61 -111
-103 -25 -75 24 -164 101 -184 l39 -11 -15 -29 c-8 -16 -15 -42 -15 -58 0 -39
38 -94 78 -111 24 -11 31 -19 26 -30 -39 -88 16 -181 106 -181 23 0 45 -11 76
-39 83 -73 202 -111 349 -111 153 0 282 42 364 119 22 21 43 31 65 31 43 0 93
33 113 76 16 32 16 39 2 78 l-16 43 34 13 c48 17 75 63 70 120 -2 25 -7 53
-11 62 -6 13 -3 19 10 24 82 25 124 74 124 145 0 73 -65 149 -128 149 -22 0
-22 1 -8 22 9 13 16 43 16 69 0 55 -26 94 -76 115 -32 13 -33 15 -19 41 19 36
19 57 -1 99 -19 40 -59 64 -105 64 -22 0 -43 10 -70 35 -46 41 -114 77 -188
99 -69 20 -273 21 -348 1z m368 -53 c58 -21 129 -62 129 -74 0 -5 -147 -8
-326 -8 -223 0 -323 3 -319 10 18 29 127 79 205 94 14 2 77 3 140 1 84 -2 130
-8 171 -23z m290 -141 c32 -26 32 -86 0 -112 -22 -18 -49 -19 -481 -19 -448 0
-458 0 -484 21 -33 26 -35 73 -4 106 l21 23 463 0 c436 0 463 -1 485 -19z m83
-200 c36 -34 36 -88 0 -122 -25 -23 -32 -24 -190 -27 l-164 -3 -42 36 c-102
86 -258 82 -350 -10 l-27 -26 -169 3 c-149 3 -173 5 -190 22 -44 39 -34 116
18 143 20 10 141 12 557 10 l531 -2 26 -24z m-467 -119 c76 -40 113 -104 113
-200 0 -103 -65 -178 -176 -203 -162 -36 -305 145 -235 296 54 116 186 164
298 107z m-343 -109 c-16 -45 -18 -106 -5 -151 l10 -32 -184 0 c-213 0 -253 9
-279 65 -20 41 -20 49 1 92 26 56 52 62 274 63 l197 0 -14 -37z m896 22 c40
-20 60 -53 60 -95 0 -44 -19 -73 -64 -94 -28 -13 -69 -16 -220 -16 -102 0
-186 3 -186 8 0 4 5 26 10 49 9 40 3 97 -16 146 -6 16 11 17 190 17 155 0 203
-3 226 -15z m-840 -279 c92 -104 255 -109 360 -10 l47 44 162 0 c159 0 162 -1
186 -25 17 -16 25 -35 25 -60 0 -25 -8 -44 -25 -60 -23 -23 -31 -25 -132 -25
-883 -2 -967 0 -993 19 -50 37 -48 114 3 139 12 6 91 11 180 11 l158 1 29 -34z
m665 -196 c44 -37 38 -106 -11 -129 -17 -8 -162 -11 -475 -11 l-450 0 -24 25
c-44 43 -29 107 30 125 17 5 228 8 471 7 370 -2 444 -4 459 -17z m-160 -196
c-139 -108 -415 -125 -577 -37 -98 54 -101 53 263 53 303 -1 332 -2 314 -16z"/>
<path d="M2573 2199 c-39 -23 -53 -37 -53 -53 0 -31 33 -60 59 -51 28 9 28 37
-1 33 -34 -5 -32 18 5 41 19 12 39 21 46 21 15 0 14 -27 -1 -33 -9 -3 -7 -7 5
-12 12 -5 24 -2 34 7 12 13 13 20 2 39 -11 23 -28 39 -39 39 -3 0 -29 -14 -57
-31z"/>
<path d="M413 2184 c-4 -10 12 -34 48 -70 29 -30 57 -54 62 -54 5 0 6 13 2 29
-6 30 5 45 34 46 8 0 16 5 18 10 3 10 -117 55 -146 55 -6 0 -14 -7 -18 -16z
m91 -46 c-3 -5 -12 -4 -20 3 -19 16 -18 18 6 12 11 -3 17 -9 14 -15z"/>
<path d="M2643 2065 c-42 -19 -53 -29 -53 -48 0 -39 23 -61 54 -53 30 7 31 31
1 31 -30 0 -28 23 4 39 48 25 79 18 49 -12 -9 -9 -7 -13 6 -18 11 -4 24 0 34
10 15 15 15 19 2 44 -21 36 -35 37 -97 7z"/>
<path d="M330 2017 c0 -13 111 -67 136 -67 7 0 14 8 17 18 2 9 8 25 12 35 9
23 -20 23 -33 0 -9 -15 -14 -15 -60 5 -59 26 -72 27 -72 9z"/>
<path d="M2705 1928 c-33 -11 -62 -22 -64 -24 -2 -2 1 -22 8 -45 14 -47 38
-48 33 -1 -4 37 22 46 31 12 8 -30 35 -15 29 16 -6 33 25 33 34 -1 6 -26 34
-35 34 -11 0 26 -22 76 -33 75 -7 0 -39 -10 -72 -21z"/>
<path d="M413 1880 c-6 -24 -9 -24 -63 -5 -52 18 -70 19 -70 2 0 -11 137 -64
144 -55 9 11 23 67 19 72 -12 12 -25 6 -30 -14z"/>
<path d="M262 1787 c-6 -7 -13 -24 -17 -39 -8 -33 11 -45 89 -54 54 -7 56 -6
66 21 18 48 11 54 -101 79 -16 3 -31 1 -37 -7z m86 -33 c12 -4 22 -13 22 -21
0 -12 -7 -14 -31 -9 -17 3 -38 6 -45 6 -8 0 -14 7 -14 15 0 16 28 19 68 9z"/>
<path d="M2747 1785 c-32 -7 -60 -15 -63 -18 -3 -3 -3 -24 1 -46 9 -52 35 -57
35 -6 0 38 19 48 27 15 8 -29 33 -25 33 5 0 15 6 25 14 25 8 0 17 -11 20 -25
4 -14 13 -25 22 -25 12 0 14 8 8 38 -11 60 -5 57 -97 37z"/>
<path d="M204 1616 c-13 -52 -4 -60 74 -69 94 -11 104 -7 100 40 -3 33 -7 38
-30 41 -31 4 -37 -12 -11 -27 28 -15 7 -25 -45 -22 -56 3 -72 15 -43 30 30 17
26 31 -9 31 -23 0 -31 -5 -36 -24z"/>
<path d="M2743 1633 c-47 -4 -53 -17 -33 -67 10 -28 36 -32 112 -20 41 7 50
21 41 64 -6 32 -8 33 -120 23z m87 -37 c0 -7 -14 -16 -31 -20 -47 -9 -59 -7
-59 8 0 10 13 16 38 19 20 2 40 4 45 5 4 1 7 -4 7 -12z"/>
<path d="M260 1423 c0 -10 5 -49 10 -88 110 -769 862 -1268 1610 -1068 125 33
286 106 385 173 117 80 308 275 374 382 101 165 171 365 189 541 8 75 8 77
-13 77 -20 0 -23 -7 -28 -73 -4 -40 -17 -115 -31 -167 -133 -511 -563 -878
-1091 -931 -662 -67 -1265 412 -1355 1079 -11 78 -16 92 -31 92 -12 0 -19 -7
-19 -17z"/>
</g>
</svg>
